<?xml version="1.0" encoding="utf-8"?>
<svg viewBox="0 0 500 500" xmlns="http://www.w3.org/2000/svg" xmlns:bx="https://boxy-svg.com">
  <path d="M 484.524 129.281 C 478.907 107.739 462.36 90.774 441.35 85.016 C 403.267 74.554 250.561 74.554 250.561 74.554 C 250.561 74.554 97.855 74.554 59.772 85.016 C 38.762 90.775 22.214 107.739 16.598 129.281 C 6.394 168.327 6.394 249.792 6.394 249.792 C 6.394 249.792 6.394 331.257 16.598 370.303 C 22.214 391.845 38.762 408.103 59.772 413.861 C 97.855 424.323 250.561 424.323 250.561 424.323 C 250.561 424.323 403.266 424.323 441.35 413.861 C 462.36 408.103 478.907 391.845 484.524 370.303 C 494.728 331.257 494.728 249.792 494.728 249.792 C 494.728 249.792 494.728 168.327 484.524 129.281 Z M 200.617 323.756 L 200.617 175.828 L 328.25 249.794 L 200.617 323.756 Z" style="fill: rgba(252, 0, 0, 0.8);"/>
  <path d="M 277.427 173.931 L 352.396 303.124 L 202.457 303.124 L 277.427 173.931 Z" style="fill: rgb(255, 255, 255);" transform="matrix(0.869272, -0.494334, 0.494334, 0.869272, -126.622139, 161.189713)" bx:shape="triangle 202.457 173.931 149.939 129.193 0.5 0 1@978363db"/>
</svg>